<svg xmlns="http://www.w3.org/2000/svg" xmlns:xlink="http://www.w3.org/1999/xlink" width="480" zoomAndPan="magnify" viewBox="0 0 810 809.999993" height="480" preserveAspectRatio="xMidYMid meet" version="1.0"><defs><g/><clipPath id="b5f96eda40"><rect x="0" width="481" y="0" height="162"/></clipPath></defs><g transform="matrix(1, 0, 0, 1, 165, 323)"><g clip-path="url(#b5f96eda40)"><g fill="#000000" fill-opacity="1"><g transform="translate(0.936997, 121.017004)"><g><path d="M 39.140625 -47.609375 L 28.609375 -47.609375 L 28.609375 0 L 9.046875 0 L 9.046875 -47.609375 L 1.953125 -47.609375 L 1.953125 -63.859375 L 9.046875 -63.859375 L 9.046875 -65.6875 C 9.046875 -73.539062 11.296875 -79.507812 15.796875 -83.59375 C 20.296875 -87.675781 26.894531 -89.71875 35.59375 -89.71875 C 37.039062 -89.71875 38.109375 -89.679688 38.796875 -89.609375 L 38.796875 -73.015625 C 35.054688 -73.242188 32.421875 -72.707031 30.890625 -71.40625 C 29.367188 -70.113281 28.609375 -67.785156 28.609375 -64.421875 L 28.609375 -63.859375 L 39.140625 -63.859375 Z M 39.140625 -47.609375 "/></g></g></g><g fill="#000000" fill-opacity="1"><g transform="translate(42.136007, 121.017004)"><g><path d="M 26.65625 -53.21875 C 28.945312 -56.726562 31.804688 -59.492188 35.234375 -61.515625 C 38.671875 -63.535156 42.488281 -64.546875 46.6875 -64.546875 L 46.6875 -43.828125 L 41.3125 -43.828125 C 36.425781 -43.828125 32.757812 -42.773438 30.3125 -40.671875 C 27.875 -38.578125 26.65625 -34.898438 26.65625 -29.640625 L 26.65625 0 L 7.09375 0 L 7.09375 -63.859375 L 26.65625 -63.859375 Z M 26.65625 -53.21875 "/></g></g></g><g fill="#000000" fill-opacity="1"><g transform="translate(91.117062, 121.017004)"><g><path d="M 67.296875 -32.953125 C 67.296875 -31.128906 67.179688 -29.222656 66.953125 -27.234375 L 22.65625 -27.234375 C 22.957031 -23.265625 24.234375 -20.226562 26.484375 -18.125 C 28.742188 -16.03125 31.507812 -14.984375 34.78125 -14.984375 C 39.664062 -14.984375 43.0625 -17.046875 44.96875 -21.171875 L 65.796875 -21.171875 C 64.734375 -16.972656 62.804688 -13.195312 60.015625 -9.84375 C 57.234375 -6.488281 53.742188 -3.851562 49.546875 -1.9375 C 45.347656 -0.03125 40.65625 0.921875 35.46875 0.921875 C 29.21875 0.921875 23.648438 -0.410156 18.765625 -3.078125 C 13.878906 -5.753906 10.0625 -9.570312 7.3125 -14.53125 C 4.570312 -19.488281 3.203125 -25.285156 3.203125 -31.921875 C 3.203125 -38.566406 4.554688 -44.367188 7.265625 -49.328125 C 9.972656 -54.285156 13.769531 -58.097656 18.65625 -60.765625 C 23.539062 -63.429688 29.144531 -64.765625 35.46875 -64.765625 C 41.65625 -64.765625 47.148438 -63.46875 51.953125 -60.875 C 56.765625 -58.28125 60.523438 -54.582031 63.234375 -49.78125 C 65.941406 -44.976562 67.296875 -39.367188 67.296875 -32.953125 Z M 47.265625 -38.109375 C 47.265625 -41.460938 46.117188 -44.128906 43.828125 -46.109375 C 41.535156 -48.097656 38.675781 -49.09375 35.25 -49.09375 C 31.96875 -49.09375 29.203125 -48.140625 26.953125 -46.234375 C 24.703125 -44.328125 23.304688 -41.617188 22.765625 -38.109375 Z M 47.265625 -38.109375 "/></g></g></g><g fill="#000000" fill-opacity="1"><g transform="translate(161.613144, 121.017004)"><g><path d="M 67.296875 -32.953125 C 67.296875 -31.128906 67.179688 -29.222656 66.953125 -27.234375 L 22.65625 -27.234375 C 22.957031 -23.265625 24.234375 -20.226562 26.484375 -18.125 C 28.742188 -16.03125 31.507812 -14.984375 34.78125 -14.984375 C 39.664062 -14.984375 43.0625 -17.046875 44.96875 -21.171875 L 65.796875 -21.171875 C 64.734375 -16.972656 62.804688 -13.195312 60.015625 -9.84375 C 57.234375 -6.488281 53.742188 -3.851562 49.546875 -1.9375 C 45.347656 -0.03125 40.65625 0.921875 35.46875 0.921875 C 29.21875 0.921875 23.648438 -0.410156 18.765625 -3.078125 C 13.878906 -5.753906 10.0625 -9.570312 7.3125 -14.53125 C 4.570312 -19.488281 3.203125 -25.285156 3.203125 -31.921875 C 3.203125 -38.566406 4.554688 -44.367188 7.265625 -49.328125 C 9.972656 -54.285156 13.769531 -58.097656 18.65625 -60.765625 C 23.539062 -63.429688 29.144531 -64.765625 35.46875 -64.765625 C 41.65625 -64.765625 47.148438 -63.46875 51.953125 -60.875 C 56.765625 -58.28125 60.523438 -54.582031 63.234375 -49.78125 C 65.941406 -44.976562 67.296875 -39.367188 67.296875 -32.953125 Z M 47.265625 -38.109375 C 47.265625 -41.460938 46.117188 -44.128906 43.828125 -46.109375 C 41.535156 -48.097656 38.675781 -49.09375 35.25 -49.09375 C 31.96875 -49.09375 29.203125 -48.140625 26.953125 -46.234375 C 24.703125 -44.328125 23.304688 -41.617188 22.765625 -38.109375 Z M 47.265625 -38.109375 "/></g></g></g><g fill="#000000" fill-opacity="1"><g transform="translate(232.109226, 121.017004)"><g><path d="M 39.140625 -47.609375 L 28.609375 -47.609375 L 28.609375 0 L 9.046875 0 L 9.046875 -47.609375 L 1.953125 -47.609375 L 1.953125 -63.859375 L 9.046875 -63.859375 L 9.046875 -65.6875 C 9.046875 -73.539062 11.296875 -79.507812 15.796875 -83.59375 C 20.296875 -87.675781 26.894531 -89.71875 35.59375 -89.71875 C 37.039062 -89.71875 38.109375 -89.679688 38.796875 -89.609375 L 38.796875 -73.015625 C 35.054688 -73.242188 32.421875 -72.707031 30.890625 -71.40625 C 29.367188 -70.113281 28.609375 -67.785156 28.609375 -64.421875 L 28.609375 -63.859375 L 39.140625 -63.859375 Z M 39.140625 -47.609375 "/></g></g></g><g fill="#000000" fill-opacity="1"><g transform="translate(273.308236, 121.017004)"><g><path d="M 26.65625 -84.6875 L 26.65625 0 L 7.09375 0 L 7.09375 -84.6875 Z M 26.65625 -84.6875 "/></g></g></g><g fill="#000000" fill-opacity="1"><g transform="translate(307.068526, 121.017004)"><g><path d="M 36.15625 0.921875 C 29.90625 0.921875 24.28125 -0.410156 19.28125 -3.078125 C 14.28125 -5.753906 10.347656 -9.570312 7.484375 -14.53125 C 4.628906 -19.488281 3.203125 -25.285156 3.203125 -31.921875 C 3.203125 -38.484375 4.648438 -44.265625 7.546875 -49.265625 C 10.453125 -54.265625 14.421875 -58.097656 19.453125 -60.765625 C 24.484375 -63.429688 30.128906 -64.765625 36.390625 -64.765625 C 42.648438 -64.765625 48.296875 -63.429688 53.328125 -60.765625 C 58.359375 -58.097656 62.320312 -54.265625 65.21875 -49.265625 C 68.125 -44.265625 69.578125 -38.484375 69.578125 -31.921875 C 69.578125 -25.367188 68.109375 -19.59375 65.171875 -14.59375 C 62.234375 -9.59375 58.226562 -5.753906 53.15625 -3.078125 C 48.082031 -0.410156 42.414062 0.921875 36.15625 0.921875 Z M 36.15625 -16.015625 C 39.894531 -16.015625 43.082031 -17.390625 45.71875 -20.140625 C 48.351562 -22.890625 49.671875 -26.816406 49.671875 -31.921875 C 49.671875 -37.035156 48.390625 -40.960938 45.828125 -43.703125 C 43.273438 -46.453125 40.128906 -47.828125 36.390625 -47.828125 C 32.578125 -47.828125 29.410156 -46.472656 26.890625 -43.765625 C 24.367188 -41.054688 23.109375 -37.109375 23.109375 -31.921875 C 23.109375 -26.816406 24.347656 -22.890625 26.828125 -20.140625 C 29.316406 -17.390625 32.425781 -16.015625 36.15625 -16.015625 Z M 36.15625 -16.015625 "/></g></g></g><g fill="#000000" fill-opacity="1"><g transform="translate(379.967882, 121.017004)"><g><path d="M 98.765625 -63.859375 L 81.484375 0 L 59.84375 0 L 49.78125 -41.421875 L 39.359375 0 L 17.859375 0 L 0.453125 -63.859375 L 20.03125 -63.859375 L 29.0625 -18.203125 L 39.828125 -63.859375 L 60.53125 -63.859375 L 71.40625 -18.421875 L 80.328125 -63.859375 Z M 98.765625 -63.859375 "/></g></g></g></g></g></svg>